<?xml version="1.0" standalone="no"?>
<!DOCTYPE svg PUBLIC "-//W3C//DTD SVG 20010904//EN"
 "http://www.w3.org/TR/2001/REC-SVG-20010904/DTD/svg10.dtd">
<svg version="1.0" xmlns="http://www.w3.org/2000/svg"
 width="1200.000000pt" height="1200.000000pt" viewBox="0 0 1200.000000 1200.000000"
 preserveAspectRatio="xMidYMid meet">
<metadata>
Created by potrace 1.14, written by Peter Selinger 2001-2017
</metadata>
<g transform="translate(0.000000,1200.000000) scale(0.100000,-0.100000)"
fill="#000000" stroke="none">
<path d="M5840 11918 c0 -5 -4 -7 -8 -4 -13 8 -179 -30 -260 -59 -40 -14 -109
-44 -153 -67 -120 -60 -309 -201 -309 -229 0 -7 -3 -10 -6 -7 -7 8 -1914
-1899 -1914 -1914 0 -6 -3 -9 -6 -6 -7 8 -1274 -1259 -1274 -1274 0 -6 -3 -9
-6 -6 -7 8 -634 -619 -634 -634 0 -6 -3 -9 -6 -6 -5 6 -805 -789 -879 -874
-63 -72 -75 -88 -75 -96 0 -4 -11 -19 -25 -34 -14 -15 -25 -29 -25 -32 0 -2
-16 -32 -35 -65 -19 -34 -35 -65 -35 -69 -1 -4 -10 -25 -19 -47 -22 -48 -33
-77 -37 -90 -27 -102 -36 -139 -40 -157 -2 -13 -7 -36 -11 -53 -9 -40 -10
-320 -1 -370 18 -108 36 -179 68 -266 31 -84 116 -252 131 -257 5 -2 9 -8 9
-13 0 -6 25 -42 56 -81 63 -78 4750 -4769 4829 -4833 28 -22 54 -46 58 -52 4
-7 14 -13 21 -13 7 0 20 -8 30 -19 9 -10 34 -26 56 -36 22 -10 40 -21 40 -25
0 -7 16 -14 43 -18 4 -1 27 -12 51 -26 42 -23 175 -71 226 -80 14 -3 36 -8 50
-11 68 -16 116 -19 245 -20 139 0 203 6 280 25 22 6 50 13 63 16 107 23 290
112 415 202 84 61 297 263 297 283 0 7 3 10 6 7 7 -8 302 285 297 295 -2 4 0
7 6 7 14 0 1291 1277 1291 1292 0 6 3 9 6 6 7 -8 1462 1445 1457 1454 -2 5 0
8 6 8 15 0 451 437 451 451 0 7 3 10 6 7 7 -8 502 485 497 495 -2 4 1 7 7 7 6
0 119 110 253 243 263 265 300 304 337 357 13 19 30 41 38 49 7 7 24 34 37 60
14 25 29 53 34 61 19 30 77 163 79 180 0 3 6 18 12 35 11 28 35 132 48 205 9
52 8 318 -1 370 -17 91 -38 172 -63 243 -27 73 -108 239 -128 260 -6 7 -29 39
-51 71 -25 38 -915 935 -2416 2435 -1306 1307 -2397 2395 -2425 2419 -58 50
-59 51 -104 82 -19 13 -37 27 -40 30 -3 3 -19 12 -35 21 -17 8 -39 21 -50 27
-60 34 -219 98 -270 108 -11 2 -31 6 -45 9 -105 23 -154 28 -292 30 -92 1
-158 -2 -158 -7z"/>
</g>
</svg>
